<svg xmlns="http://www.w3.org/2000/svg" viewBox="0 0 100 100" width="100" height="100">
  <rect width="100" height="100" rx="15" fill="#764ba2" />
  <rect x="15" y="15" width="20" height="20" rx="5" fill="white" />
  <rect x="40" y="15" width="20" height="20" rx="5" fill="white" />
  <rect x="65" y="15" width="20" height="20" rx="5" fill="white" />
  <rect x="15" y="40" width="20" height="20" rx="5" fill="white" />
  <rect x="40" y="40" width="20" height="20" rx="5" fill="white" />
  <rect x="65" y="40" width="20" height="20" rx="5" fill="white" />
  <rect x="15" y="65" width="20" height="20" rx="5" fill="white" />
  <rect x="40" y="65" width="20" height="20" rx="5" fill="white" />
  <rect x="65" y="65" width="20" height="20" rx="5" fill="white" />
  
  <!-- X in top-left -->
  <line x1="20" y1="20" x2="30" y2="30" stroke="#e74c3c" stroke-width="3" stroke-linecap="round" />
  <line x1="30" y1="20" x2="20" y2="30" stroke="#e74c3c" stroke-width="3" stroke-linecap="round" />
  
  <!-- O in center -->
  <circle cx="50" cy="50" r="7" stroke="#3498db" stroke-width="3" fill="none" />
  
  <!-- X in bottom-right -->
  <line x1="70" y1="70" x2="80" y2="80" stroke="#e74c3c" stroke-width="3" stroke-linecap="round" />
  <line x1="80" y1="70" x2="70" y2="80" stroke="#e74c3c" stroke-width="3" stroke-linecap="round" />
</svg> 